<svg width="112" height="102" viewBox="0 0 112 102" fill="none" xmlns="http://www.w3.org/2000/svg">
<path fill-rule="evenodd" clip-rule="evenodd" d="M25.6537 0.0757562C26.1643 0.0381867 26.5916 0.448101 26.5916 0.959263V22.7241C26.5916 23.2211 26.188 23.6241 25.6902 23.6241H1.33828C0.788361 23.6241 0.365661 23.1359 0.46597 22.5959C2.73292 10.3958 13.0153 1.00568 25.6537 0.0757562Z" fill="#AB63FA"/>
<path fill-rule="evenodd" clip-rule="evenodd" d="M0.44869 27.0601C0.204347 27.0601 0.00412108 27.2545 0.00155715 27.4986C0.00051991 27.5972 0 27.696 0 27.7949C0 43.0799 12.4108 55.4709 27.7203 55.4709C28.3225 55.4709 28.9201 55.4518 29.5126 55.414C29.7474 55.3989 29.9281 55.2034 29.9281 54.9685V50.4596C29.9281 50.1939 29.6985 49.9863 29.4328 50.0065C28.8676 50.0493 28.2966 50.0711 27.7203 50.0711C15.3978 50.0711 5.40845 40.0977 5.40845 27.7949C5.40845 27.7047 5.40899 27.6147 5.41005 27.525C5.41309 27.2707 5.20944 27.0601 4.95482 27.0601H0.44869ZM30.3356 5.67026C30.1052 5.64342 29.9281 5.45009 29.9281 5.21862V0.692419C29.9281 0.429967 30.1537 0.223001 30.4153 0.248206C44.0681 1.56329 54.8252 12.7662 55.415 26.5971C55.4258 26.85 55.2219 27.0601 54.9683 27.0601H50.4566C50.2134 27.0601 50.0144 26.8662 50.0018 26.6236C49.4371 15.7374 41.0441 6.91847 30.3356 5.67026Z" fill="#AB63FA"/>
<path d="M16.9331 71.9641L21.2905 57.5287H25.7008L19.0062 76.7231H14.8733L8.20514 57.5287H12.6021L16.9331 71.9641ZM31.735 76.7231H27.7738V57.5287H31.735V76.7231ZM39.618 73.546H49.3098V76.7231H34.6664V74.403L44.1735 60.7321H34.6797V57.5287H49.0986V59.7961L39.618 73.546ZM66.3698 57.5287V70.1711C66.3698 72.2717 65.7095 73.9328 64.3892 75.1542C63.0774 76.376 61.2818 76.9868 59.0017 76.9868C56.757 76.9868 54.9744 76.3935 53.6541 75.2071C52.3335 74.0205 51.6602 72.3902 51.6338 70.316V57.5287H55.5951V70.1975C55.5951 71.4543 55.8943 72.3727 56.4931 72.9527C57.1004 73.524 57.9367 73.8097 59.0017 73.8097C61.2289 73.8097 62.3601 72.6406 62.3953 70.303V57.5287H66.3698ZM80.1814 72.7682H73.2358L71.9155 76.7231H67.7034L74.86 57.5287H78.5307L85.7271 76.7231H81.5151L80.1814 72.7682ZM74.3054 69.5648H79.1119L76.6954 62.3799L74.3054 69.5648ZM91.4842 73.546H99.8952V76.7231H87.5229V57.5287H91.4842V73.546ZM102.127 74.8512C102.127 74.2446 102.329 73.7526 102.734 73.3746C103.148 72.9968 103.663 72.8078 104.279 72.8078C104.904 72.8078 105.419 72.9968 105.824 73.3746C106.238 73.7526 106.445 74.2446 106.445 74.8512C106.445 75.4488 106.242 75.9365 105.837 76.3145C105.432 76.6835 104.913 76.8682 104.279 76.8682C103.654 76.8682 103.139 76.6835 102.734 76.3145C102.329 75.9365 102.127 75.4488 102.127 74.8512Z" fill="#636EFA"/>
<path d="M55.1338 56.0239H49.8522L39.5705 39.1847V56.0239H34.2887V30.4312H39.5705L49.8698 47.3055V30.4312H55.1338V56.0239ZM65.3627 56.0239H60.0809V30.4312H65.3627V56.0239ZM90.398 47.4988C90.1983 50.2526 89.1772 52.4204 87.3345 54.0026C85.5036 55.5845 83.0858 56.3753 80.0809 56.3753C76.7946 56.3753 74.2067 55.274 72.3169 53.0709C70.439 50.8561 69.5 47.8212 69.5 43.9657V42.4014C69.5 39.9406 69.9342 37.7726 70.8029 35.8978C71.6714 34.0229 72.9095 32.5872 74.5176 31.5912C76.1372 30.5835 78.0153 30.0795 80.1514 30.0795C83.1092 30.0795 85.4918 30.8706 87.2994 32.4525C89.1067 34.0346 90.1514 36.2551 90.4331 39.1145H85.1513C85.0222 37.4621 84.5586 36.2668 83.7607 35.5286C82.9742 34.7787 81.771 34.4036 80.1514 34.4036C78.3908 34.4036 77.0704 35.0365 76.1902 36.3021C75.3217 37.556 74.8755 39.5071 74.8521 42.1552V44.0888C74.8521 46.8544 75.2687 48.8757 76.1021 50.153C76.9472 51.4302 78.2736 52.069 80.0809 52.069C81.7125 52.069 82.9273 51.6998 83.7253 50.9616C84.5352 50.2117 84.9988 49.0573 85.1162 47.4988H90.398ZM109.289 44.9325H99.1479V51.7878H111.049V56.0239H93.8661V30.4312H111.014V34.7024H99.1479V40.8019H109.289V44.9325Z" fill="#636EFA"/>
<path d="M25.293 94.536C25.293 95.5204 25.0723 96.3036 24.6309 96.8857C24.1934 97.4677 23.5898 97.7587 22.8203 97.7587C22.0781 97.7587 21.5 97.4911 21.0859 96.956L21.0156 97.6415H19.7266V88.6415H21.1504V91.911C21.5605 91.4267 22.1133 91.1845 22.8086 91.1845C23.582 91.1845 24.1895 91.4716 24.6309 92.0458C25.0723 92.62 25.293 93.4228 25.293 94.454V94.536ZM23.8691 94.413C23.8691 93.7255 23.748 93.2099 23.5059 92.8661C23.2637 92.5224 22.9121 92.3505 22.4512 92.3505C21.834 92.3505 21.4004 92.62 21.1504 93.1591V95.7724C21.4043 96.3232 21.8418 96.5985 22.4629 96.5985C22.9082 96.5985 23.252 96.4325 23.4941 96.1005C23.7363 95.7685 23.8613 95.2665 23.8691 94.5946V94.413ZM28.6387 95.6024L29.9277 91.3017H31.4453L28.9258 98.6024C28.5391 99.6689 27.8828 100.202 26.957 100.202C26.75 100.202 26.5215 100.167 26.2715 100.097V98.995L26.541 99.0126C26.9004 99.0126 27.1699 98.9462 27.3496 98.8134C27.5332 98.6845 27.6777 98.4657 27.7832 98.1571L27.9883 97.6122L25.7617 91.3017H27.2969L28.6387 95.6024ZM40.1699 95.6552H36.8652L36.1738 97.6415H34.6328L37.8555 89.1103H39.1855L42.4141 97.6415H40.8672L40.1699 95.6552ZM37.2812 94.4599H39.7539L38.5176 90.9208L37.2812 94.4599ZM44.7637 97.6415H43.3398V88.6415H44.7637V97.6415ZM50.1074 97.6415C50.0449 97.5204 49.9902 97.3232 49.9434 97.0497C49.4902 97.5224 48.9355 97.7587 48.2793 97.7587C47.6426 97.7587 47.123 97.5771 46.7207 97.2138C46.3184 96.8505 46.1172 96.4013 46.1172 95.8661C46.1172 95.1903 46.3672 94.6728 46.8672 94.3134C47.3711 93.9501 48.0898 93.7685 49.0234 93.7685H49.8965V93.3524C49.8965 93.0243 49.8047 92.7626 49.6211 92.5673C49.4375 92.3681 49.1582 92.2685 48.7832 92.2685C48.459 92.2685 48.1934 92.3505 47.9863 92.5146C47.7793 92.6747 47.6758 92.8798 47.6758 93.1298H46.252C46.252 92.7821 46.3672 92.4579 46.5977 92.1571C46.8281 91.8524 47.1406 91.6142 47.5352 91.4423C47.9336 91.2704 48.377 91.1845 48.8652 91.1845C49.6074 91.1845 50.1992 91.372 50.6406 91.747C51.082 92.1181 51.3086 92.6415 51.3203 93.3173V96.1767C51.3203 96.747 51.4004 97.2021 51.5605 97.5419V97.6415H50.1074ZM48.543 96.6161C48.8242 96.6161 49.0879 96.5478 49.334 96.411C49.584 96.2743 49.7715 96.0907 49.8965 95.8603V94.6649H49.1289C48.6016 94.6649 48.2051 94.7567 47.9395 94.9403C47.6738 95.1239 47.541 95.3837 47.541 95.7196C47.541 95.9931 47.6309 96.2118 47.8105 96.3759C47.9941 96.536 48.2383 96.6161 48.543 96.6161ZM54.1504 91.3017L54.1914 91.9638C54.6367 91.4442 55.2461 91.1845 56.0195 91.1845C56.8672 91.1845 57.4473 91.5087 57.7598 92.1571C58.2207 91.5087 58.8691 91.1845 59.7051 91.1845C60.4043 91.1845 60.9238 91.3778 61.2637 91.7646C61.6074 92.1513 61.7832 92.7216 61.791 93.4755V97.6415H60.3672V93.5165C60.3672 93.1142 60.2793 92.8192 60.1035 92.6317C59.9277 92.4442 59.6367 92.3505 59.2305 92.3505C58.9062 92.3505 58.6406 92.4384 58.4336 92.6142C58.2305 92.786 58.0879 93.0126 58.0059 93.2939L58.0117 97.6415H56.5879V93.4696C56.5684 92.7235 56.1875 92.3505 55.4453 92.3505C54.875 92.3505 54.4707 92.5829 54.2324 93.0478V97.6415H52.8086V91.3017H54.1504ZM66.0449 97.7587C65.1426 97.7587 64.4102 97.4755 63.8477 96.9091C63.2891 96.3388 63.0098 95.581 63.0098 94.6357V94.4599C63.0098 93.8271 63.1309 93.2626 63.373 92.7665C63.6191 92.2665 63.9629 91.8778 64.4043 91.6005C64.8457 91.3232 65.3379 91.1845 65.8809 91.1845C66.7441 91.1845 67.4102 91.4599 67.8789 92.0107C68.3516 92.5614 68.5879 93.3407 68.5879 94.3485V94.9228H64.4453C64.4883 95.4462 64.6621 95.8603 64.9668 96.1649C65.2754 96.4696 65.6621 96.622 66.127 96.622C66.7793 96.622 67.3105 96.3583 67.7207 95.831L68.4883 96.5634C68.2344 96.9423 67.8945 97.2372 67.4688 97.4482C67.0469 97.6552 66.5723 97.7587 66.0449 97.7587ZM65.875 92.3271C65.4844 92.3271 65.168 92.4638 64.9258 92.7372C64.6875 93.0107 64.5352 93.3915 64.4688 93.8798H67.1816V93.7743C67.1504 93.2978 67.0234 92.9384 66.8008 92.6962C66.5781 92.4501 66.2695 92.3271 65.875 92.3271ZM71.1016 91.9931C71.5664 91.454 72.1543 91.1845 72.8652 91.1845C74.2168 91.1845 74.9023 91.956 74.9219 93.4989V97.6415H73.498V93.5517C73.498 93.1142 73.4023 92.8056 73.2109 92.6259C73.0234 92.4423 72.7461 92.3505 72.3789 92.3505C71.8086 92.3505 71.3828 92.6044 71.1016 93.1122V97.6415H69.6777V88.6415H71.1016V91.9931ZM80.1543 97.6415C80.0918 97.5204 80.0371 97.3232 79.9902 97.0497C79.5371 97.5224 78.9824 97.7587 78.3262 97.7587C77.6895 97.7587 77.1699 97.5771 76.7676 97.2138C76.3652 96.8505 76.1641 96.4013 76.1641 95.8661C76.1641 95.1903 76.4141 94.6728 76.9141 94.3134C77.418 93.9501 78.1367 93.7685 79.0703 93.7685H79.9434V93.3524C79.9434 93.0243 79.8516 92.7626 79.668 92.5673C79.4844 92.3681 79.2051 92.2685 78.8301 92.2685C78.5059 92.2685 78.2402 92.3505 78.0332 92.5146C77.8262 92.6747 77.7227 92.8798 77.7227 93.1298H76.2988C76.2988 92.7821 76.4141 92.4579 76.6445 92.1571C76.875 91.8524 77.1875 91.6142 77.582 91.4423C77.9805 91.2704 78.4238 91.1845 78.9121 91.1845C79.6543 91.1845 80.2461 91.372 80.6875 91.747C81.1289 92.1181 81.3555 92.6415 81.3672 93.3173V96.1767C81.3672 96.747 81.4473 97.2021 81.6074 97.5419V97.6415H80.1543ZM78.5898 96.6161C78.8711 96.6161 79.1348 96.5478 79.3809 96.411C79.6309 96.2743 79.8184 96.0907 79.9434 95.8603V94.6649H79.1758C78.6484 94.6649 78.252 94.7567 77.9863 94.9403C77.7207 95.1239 77.5879 95.3837 77.5879 95.7196C77.5879 95.9931 77.6777 96.2118 77.8574 96.3759C78.041 96.536 78.2852 96.6161 78.5898 96.6161ZM84.1797 91.3017L84.2207 92.0341C84.6895 91.4677 85.3047 91.1845 86.0664 91.1845C87.3867 91.1845 88.0586 91.9403 88.082 93.4521V97.6415H86.6582V93.5341C86.6582 93.1317 86.5703 92.8349 86.3945 92.6435C86.2227 92.4482 85.9395 92.3505 85.5449 92.3505C84.9707 92.3505 84.543 92.6103 84.2617 93.1298V97.6415H82.8379V91.3017H84.1797Z" fill="#636363"/>
</svg>
